# xmcd
#
# Track frame offsets: 
#        150
#        20629
#        34414
#        51382
#        69778
#        86433
#        108389
#        123943
#        152134
#        163871
#        182582
#
# Disc length: 2690 seconds
#
# Revision: 5
# Processed by: cddbd v1.5.2PL0 Copyright (c) Steve Scherf et al.
# Submitted via: ExactAudioCopy v0.95b4
#
DISCID=8d0a800b
DTITLE=Solomon Burke - Soul Lucky
DYEAR=2004
DGENRE=Blues
TTITLE0=Boo Hoo (Cry Over You)
TTITLE1=Lucky
TTITLE2=Hold On I'm Coming
TTITLE3=Please Come Back To Me
TTITLE4=The More
TTITLE5=Sidewalks, Fences And Walls
TTITLE6=Sweeter Than Sweetness
TTITLE7=Let Your Love Flow
TTITLE8=Music To Make Love By
TTITLE9=Let Me Wrap My Arms Around You
TTITLE10=Everlasting Love
EXTD=YEAR: 2004
EXTT0=
EXTT1=
EXTT2=
EXTT3=
EXTT4=
EXTT5=
EXTT6=
EXTT7=
EXTT8=
EXTT9=
EXTT10=
PLAYORDER=
